<?xml version="1.0" encoding="UTF-8" standalone="no"?>
<!DOCTYPE svg PUBLIC "-//W3C//DTD SVG 1.1//EN"
 "http://www.w3.org/Graphics/SVG/1.1/DTD/svg11.dtd">
<!-- Generated by graphviz version 2.40.1 (20161225.0304)
 -->
<!-- Title: G Pages: 1 -->
<svg width="397pt" height="180pt"
 viewBox="0.00 0.00 397.00 180.00" xmlns="http://www.w3.org/2000/svg" xmlns:xlink="http://www.w3.org/1999/xlink">
<g id="graph0" class="graph" transform="scale(1 1) rotate(0) translate(36 144)">
<title>G</title>
<polygon fill="#ffffff" stroke="transparent" points="-36,36 -36,-144 361,-144 361,36 -36,36"/>
<!-- red -->
<g id="node1" class="node">
<title>red</title>
<ellipse fill="#000000" stroke="#000000" cx="54" cy="-54" rx="54" ry="54"/>
<text text-anchor="middle" x="54" y="-50.3" font-family="Times,serif" font-size="14.00" fill="#ffffff">red</text>
</g>
<!-- green -->
<g id="node2" class="node">
<title>green</title>
<ellipse fill="none" stroke="#000000" cx="271" cy="-54" rx="54" ry="54"/>
<text text-anchor="middle" x="271" y="-50.3" font-family="Times,serif" font-size="14.00" fill="#000000">green</text>
</g>
<!-- red&#45;&gt;green -->
<g id="edge1" class="edge">
<title>red&#45;&gt;green</title>
<path fill="none" stroke="#000000" d="M108.1985,-54C137.9738,-54 175.1002,-54 206.3768,-54"/>
<polygon fill="#000000" stroke="#000000" points="206.7404,-57.5001 216.7404,-54 206.7403,-50.5001 206.7404,-57.5001"/>
<text text-anchor="middle" x="162.5" y="-57.8" font-family="Times,serif" font-size="14.00" fill="#000000"> (6000ms)</text>
</g>
<!-- green&#45;&gt;red -->
<g id="edge2" class="edge">
<title>green&#45;&gt;red</title>
<path fill="none" stroke="#000000" d="M219.0124,-38.5935C212.3293,-37.1125 205.5384,-35.8482 199,-35 166.8252,-30.8261 158.1748,-30.8261 126,-35 122.7308,-35.4241 119.3985,-35.9522 116.048,-36.5594"/>
<polygon fill="#000000" stroke="#000000" points="115.0956,-33.1811 105.9876,-38.5935 116.4829,-40.0423 115.0956,-33.1811"/>
<text text-anchor="middle" x="162.5" y="-38.8" font-family="Times,serif" font-size="14.00" fill="#000000"> (4000ms)</text>
</g>
</g>

<g transform="translate(0.000000,17.000000) scale(0.100000,-0.100000)"
fill="#000000" stroke="none">
<path d="M21 157 c-29 -35 -16 -97 20 -97 15 0 19 -5 15 -16 -3 -9 -6 -20 -6
-25 0 -5 -4 -9 -10 -9 -14 0 -12 27 3 33 6 3 2 6 -10 6 -30 1 -31 -35 -3 -44
28 -9 47 9 55 51 3 20 9 42 12 50 3 8 -1 14 -11 14 -9 0 -16 -8 -16 -19 0 -26
-15 -34 -30 -16 -13 16 -6 48 16 70 14 13 13 15 -4 15 -11 0 -25 -6 -31 -13z"/>
<path d="M80 150 c0 -13 5 -20 13 -17 6 2 12 10 12 17 0 7 -6 15 -12 18 -8 2
-13 -5 -13 -18z"/>
<path d="M347 164 c-13 -13 -7 -24 14 -24 11 0 19 5 17 12 -5 14 -22 21 -31
12z"/>
<path d="M103 85 c-9 -40 -8 -45 8 -45 13 0 19 9 21 33 2 24 7 31 21 29 10 -2
17 3 17 13 0 10 -9 15 -28 15 -26 0 -30 -5 -39 -45z"/>
<path d="M175 101 c-24 -48 -13 -59 64 -60 63 -1 69 1 79 25 15 31 15 64 1 64
-6 0 -8 -8 -5 -18 4 -10 -1 -27 -10 -38 -14 -18 -15 -17 -9 19 5 29 3 37 -9
37 -9 0 -18 -13 -22 -35 -3 -19 -10 -35 -14 -35 -4 0 -4 16 0 35 8 35 8 35
-26 35 -27 0 -36 -6 -49 -29z m47 -6 c-5 -28 -22 -44 -22 -21 0 21 11 46 20
46 4 0 5 -11 2 -25z"/>
<path d="M340 116 c0 -7 -3 -28 -6 -45 -6 -26 -3 -31 13 -31 10 0 25 6 32 12
11 10 13 10 7 1 -5 -9 3 -13 28 -13 25 0 36 4 36 15 0 8 -4 15 -10 15 -5 0
-10 -4 -10 -10 0 -5 -5 -10 -11 -10 -6 0 -2 12 9 28 36 51 36 52 -2 52 -25 0
-36 -4 -36 -15 0 -8 5 -15 10 -15 6 0 10 5 10 12 0 6 3 9 6 6 9 -10 -19 -46
-39 -52 -17 -4 -18 -1 -13 30 6 27 4 34 -9 34 -8 0 -15 -6 -15 -14z"/>
<path d="M472 118 c-7 -7 -12 -27 -12 -46 0 -30 2 -33 27 -30 17 2 32 12 39
27 7 13 18 28 26 33 10 8 9 8 -4 4 -12 -3 -18 0 -18 9 0 18 -41 20 -58 3z m29
-51 c-13 -13 -15 11 -4 40 7 16 8 15 11 -6 2 -13 -1 -28 -7 -34z"/>
</g>
</svg>
